<svg xmlns="http://www.w3.org/2000/svg" viewBox="0 0 441 99">
 <g fill="#E24721" fill-rule="nonzero">
    <path d="M9.8 55.6c-3 0-4.6-1.1-4.6-3.7s3-4.6 6.7-4.6c2.4 0 4.8.5 7.3 1.3-3.1 4.2-6.2 7-9.4 7zM54.7 6.8c1.1 0 2.5.5 2.5 2.2 0 5.8-8 14.4-17 19.5C46 17 50.8 6.8 54.7 6.8zm16 46.1C65 53 66 57.6 59 57.6c-9.1 0-19-6.2-29-10.9a138 138 0 006.5-11.2C51 30.5 63 17.5 63 7.7 63 3 60.6.6 57.1.6 45.7.6 36.9 17.4 28.8 32.5H27c-8 0-12.4-5-12.4-11.5 0-8 4-14.9 10-14.9a5 5 0 015.1 5c0 9-10.5 5.5-10.5 11.8 0 1.9 1.3 3.6 3.6 3.6 6 0 12.2-7 12.2-15 0-5.3-3.5-11-10.7-11C13.8.5 7 9.5 7 20.5 7 30.7 15 37.7 24.9 37.7H26c-1.2 2.1-2.3 4.2-3.5 6-3.5-1-7-1.8-10.5-1.8C5 41.8 0 46 0 51.6c0 6 6 9.7 11.6 9.7 5.5 0 10.4-3.9 15-9.6 9.4 4.7 19.6 11.4 30.1 11.4 6.8 0 16.5-1.7 16.5-7.6 0-1.4-.8-2.6-2.5-2.6"/>
    <path d="M139.5 37.1c2.7-9.3 12.1-14.2 12.1-8.8 0 4.3-6 8.4-12.1 8.8zm-58 10.6c-.6 0-1.2-.6-1.2-1.4 0-1.5 1.9-2.6 4.9-3.4-.4 2.7-1.4 4.8-3.6 4.8zM120 8c.5 0 1 .8 1 1.8 0 6-7.6 20.3-16.3 25.1C107.2 21 116.2 8 120 8zM68.2 28.3c0 4.3-6 8.4-12.1 8.8 2.7-9.3 12-14.2 12-8.8zm88.8-1.8c0-3.3-1.7-5.6-6-5.6-6.7 0-13 5.1-16.6 11l-1.5 2.8c-2.5 4.4-7.3 12.4-9.2 12.4-1 0-1.4-.5-1.4-1.5 0-2.3 8.5-14.9 9.4-17.7l.1-.3c0-2.8-2.3-4.7-4.2-4.7-1.5 0-4.4 4.2-7 9.3 0 0-7.4 13.5-13.6 13.5-1.8 0-3-1.8-3-3.8v-1.2c11.1-3.9 21.7-20.4 21.7-30.8 0-5-1.7-7.2-5.3-7.2-10.5 0-22 17.6-23.6 33.8l-4 .3c-.4-4.9-1.4-9.1-1.4-10 0-1.7 1.5-1.8 1.5-3.4 0-2.3-1.4-3.3-3.4-3.3h-.3-.2l-.2.1c-3.9 1-10 8.5-14.8 15-5.1 6.2-10.4 12-14.6 12-2.8 0-4-2-4-4.5 8.5-.6 18.2-6.7 18.2-16.2 0-3.3-1.7-5.6-6-5.6-10.7 0-20.1 13-20.1 21.4 0 7.6 5 10.1 11 10.1 7.6 0 15.8-9.6 21-16.6C81.6 33 83.3 31 84 31c.3 0 1 3.2 1.3 6.8-7.3 1.7-10 4.8-10 8.4 0 3.7 2 6.5 7.4 6.5 5.6 0 10.2-4.3 10.3-11l3.6-.2c.3 5.8 3 10.6 7.7 10.7 3.8 0 7.9-2.4 11.7-5.8 0 3.3 1.7 5.9 5.5 5.9 4 0 7.5-2.9 10.1-6 1.6 4.5 6 6 10.6 6 6 0 14.3-5.6 14.3-9.1 0-2.2-1.2-3.3-2.8-3.3-3.8 0-5.6 7.2-10.6 7.2-2.5 0-4.2-2-4.3-4.5C147.3 42 157 36 157 26.5M131.7 28"/>
    <path d="M132.2 23c4 0 5.8-3.2 5.8-5.3 0-2.1-1.2-4-3.2-4-3 0-5.3 3.2-5.5 5.9-.1 1.8 1.4 3.3 2.9 3.3"/>
  </g>
  <g fill="#E24721" fill-rule="nonzero">
    <path d="M189.3 11.9c3.1-3.6 7.3-6 12-6a4 4 0 014 4.1c0 7.5-12.3 15.7-23.4 18.4l.1-.7a37 37 0 017.3-15.8zm28.2 42.3c-2.3-1.6-6.4.5-8.7 1.3a50 50 0 01-12.8 2.2c-4 0-8.1-.4-11-3-2-1.6-3.3-4.1-4-6.7-1-4.5-.8-9.4-.2-14.2 14.8-3.2 29.8-13.6 29.8-25 0-4.3-3.6-8-8.3-8-16 0-26.5 12.3-30 28.2-3.2-.7-4.6-3-4.6-5.4 0-5.4 5.8-5 5.8-8.5 0-2.5-1.4-4.5-4-4.5-5.5 0-9.4 7.6-9.4 13 0 7 5 11 11.2 11.2-.2 2.2-.3 4.3-.3 6.5 0 10 6 18.5 15.5 21.4a62.8 62.8 0 0026.2-.5c1.9-.5 3.9-1.2 5.1-2.7 1.3-1.6 1.4-4.2-.3-5.3"/>
    <path d="M253.7 6.1c1.7 0 2.7 1.1 2.7 2.7 0 2.9-5.1 5.4-12.6 6.2 3.2-5.2 6.6-8.9 10-8.9zm-47.5 41c-1.8 0-3-1.5-3-4 0-7.2 6.8-16.9 12.1-16.9.8 0 1.4.3 1.8.8h-.8c-5 0-7 9.6-2.4 13.3-2.1 3.8-5 6.8-7.7 6.8zm74-5.8c-2.5 0-3.5 5.7-6.4 5.7-.7 0-1.1-.5-1.1-1.3 0-3.4 9.4-14.1 9.4-19.3 0-3.8-1.8-5.3-4-5.3-3.4 0-6.9 1.7-10.3 4.3 1-2.4 1.7-4 1.7-4.7 0-1.7-1.4-2.7-3.6-2.7-2 0-7.3 9.3-11.6 17.7-3 4.8-7.5 11.3-9.7 11.3-.6 0-1-.5-1-1.3 0-3.4 9.3-14.1 9.3-19.3 0-3.8-1.7-5.3-4-5.3-3.7 0-7.6 2.2-11.3 5.4l3.3-6.6c11.3-.6 20.9-3.4 20.9-11.6 0-5.2-2.5-8.3-8.8-8.3-5.5 0-11.5 6.7-17 15-3.2-.4-5.7-1.8-5.7-4.4 0-2 1-2.9 2.6-2.9 1 0 1.9.9 3.6.9 2 0 3.5-1.7 3.5-3.6 0-3-2.1-4.3-6.7-4.3-6.8 0-10.7 4.2-10.7 8.8 0 5.6 4 9.5 10.6 10.3-3 5-5.6 10.3-7.7 15-1.3.6-2.6 1.1-3.9 1.3 2.2-7.6.8-15-6.4-15a21 21 0 00-19.7 20.6c0 5.3 2.7 10.7 9.8 10.7 5.9 0 11-4.8 14-10.7 1.2 0 2.3-.2 3.4-.5-1.9 4.4-3 7.4-3 7.8 0 1.9 1.4 3.6 5 3.6 1.4 0 4-5.8 7.2-13.2 4.7-5.6 9.9-11.2 11.9-11.2.7 0 1 .2 1 1 0 2-9.5 13.6-9.5 17.6 0 3.8 2.6 5.5 5.9 5.5 2 0 4.5-1.2 7-2.8a3.7 3.7 0 002.8 2.9h.5c1.6 0 5.2-5.5 8.8-12 5-6 10.6-12.2 12.7-12.2.7 0 .9.2.9 1 0 2-9.4 13.6-9.4 17.6 0 3.8 2.6 5.5 5.8 5.5 5.6 0 12.8-3.6 12.8-7.2 0-2.6-1-3.8-3-3.8"/>
  </g>
  <g fill="#E24721" fill-rule="nonzero">
    <path d="M335.5 28c2.2 0 2.2 3.4 1.4 5.3a27 27 0 01-5.9 6.6c0-6.1 1.2-11.8 4.5-11.8zM393 5.2c7.4 0 11 3.3 11 6 0 1.6-2.2 2.9-3.8 2.9-3.3 0-3.6-1.7-6.6-1.7-5.5 0-6 8.8 2.1 8.8 8.6 0 13.4-5.3 13.4-10.5 0-6-7.2-10.5-15.9-10.5C354 .1 336.7 55 333.5 55c-.7 0-1.6-3.8-2.1-8.5 6.4-6 11.4-12.2 11.4-16.3 0-4.7-3.2-7.3-7.5-7.3-6.8 0-13.1 11.2-13.1 21.1v3a55 55 0 01-13.6 8.3c-1.5 0 18-25.4 18-36.9 0-6.9-5.5-12.3-12.8-12.3-16.4 0-28.3 10.5-28.3 26.5 0 5.3 4.2 10.2 8.9 10.2 9.4 0 15.3-9.6 15.3-12.4 0-2.8-1.7-4-3.6-4-3.7 0-5 3-5 5s-.3 3-.3 3c0 1-3.3 2.7-5.3 2.7-2.9 0-4-2.4-4-5.2 0-12.6 9.9-19.7 20.2-19.7 4.9 0 6 3.1 6 6.8 0 8.3-18.3 32.8-18.3 39.1 0 3.6 2 5.3 5.9 5.3 3.1 0 10.6-4.3 18-10 1.5 5.8 4.4 10 8.2 10 11.5 0 26.4-58.3 61.5-58.3"/>
    <path d="M427.3 52l-2.3-.1c3.8-3.8 6.4-6.9 8.3-6.9.8 0 1.7 0 1.7 1.5 0 2.3-3 5.5-7.7 5.5zm-50.5-23.7c0 4.3-6 8.4-12.1 8.8 2.7-9.3 12-14.2 12-8.8zm58.4 11.5c-6.2 0-10.8 5-16.3 10-.7-.8-1-1.9-1-3.1 0-4.5 8.9-15.4 8.9-20 0-3.4-1.7-5.5-3.9-5.5-3.5 0-7.2 2-10.6 4.7 1.2-2.6 1.9-4.6 1.9-5.2 0-1.7-1.4-2.7-3.6-2.7-2.8 0-12.4 17.6-16.7 26-2 1.7-4 3-5.1 3-5.4 0 7.2-16.3 7.2-19.4 0-2.8-2.3-4.7-4.2-4.7h-.4c-2 .6-5 6.3-8.1 12-4.8 6-10.7 12.3-15.3 12.3-2.8 0-4-2-4-4.5 8.5-.6 18.2-6.7 18.2-16.2 0-3.3-1.7-5.6-6-5.6-10.7 0-20.1 13-20.1 21.4 0 7.6 5 10.1 11 10.1 4 0 8.4-2.5 12.5-6l-.1.8a6 6 0 006.2 4.8c2.2 0 4.6-.7 6.8-1.6.8 1.1 2.1 2 3.3 2 1.5 0 4.8-4.8 8.2-10.7 5-6.4 11.2-13.7 13.5-13.7.7 0 .9.3.9 1 0 2.3-8.8 12.4-8.8 18.5 0 3 1.2 5.3 3.5 7-4 2.7-8.5 4.7-14.4 4.7-12.3 0-12.6-3.7-17.7-3.7-1 0-2.4.9-2.4 2.5 0 3.8 11 7 19.3 7a34 34 0 0021.6-8.1c1.7.3 3.6.4 5.7.4 7 0 15.4-2 15.4-12 0-3.6-2.3-5.5-5.4-5.5"/>
  </g>
  <g fill="#E24721" fill-rule="nonzero">
    <path d="M136 81.2l-.4 1.5-4.5-.9-.6 3 3.8.8-.2 1.5-3.9-.8-.8 4.2-1.9-.4 2-10.2 6.4 1.3M140.5 87l1.2.2h1l.7-.2.4-.5c.2-.2.2-.5.3-.7 0-.6 0-1-.3-1.3-.3-.3-.8-.6-1.5-.7l-1.2-.2-.6 3.4zm-.2 1.4l-.7 4-1.9-.4 1.7-10.2 3.1.5c.7.2 1.3.3 1.8.6.5.2.8.5 1.1.8.3.3.5.6.5 1V86a3.1 3.1 0 01-.8 1.7 3 3 0 01-.8.6l-1 .3.5.7 1.9 4.2-1.7-.3c-.2 0-.3 0-.4-.2a.9.9 0 01-.3-.3l-1.6-3.6c0-.2-.1-.3-.2-.3l-.4-.2-.8-.1M157.4 89.8v-1.5l-.5-1.3-1-.8c-.3-.3-.8-.4-1.3-.5h-1.4c-.4.2-.8.4-1 .7-.4.2-.7.6-.9 1-.2.4-.4 1-.4 1.5-.1.6-.1 1 0 1.6 0 .4.2.8.5 1.2.2.3.5.6 1 .8.3.3.7.4 1.2.5l1.4-.1c.4-.1.8-.3 1.1-.6.4-.2.6-.6.8-1l.5-1.5zm2 .3l-.7 2a5 5 0 01-3.1 2.4c-.7.2-1.4.2-2.2.1-.8-.1-1.5-.3-2-.7a4.9 4.9 0 01-2.4-3.1c-.2-.7-.2-1.4 0-2.2 0-.7.2-1.4.6-2a5 5 0 013-2.4c.7-.2 1.5-.2 2.2-.1.8.1 1.5.3 2.1.7a5 5 0 012.3 3.1c.2.7.2 1.4.1 2.2M164.7 85.5h.1l.1.1.2.2 4.6 7.5a7.4 7.4 0 010-1l.8-6.2 1.6.2-1 10.3-1-.1-.4-.1-.3-.3-4.6-7.5a10.2 10.2 0 010 .9l-.8 6.3-1.7-.2 1.2-10.3 1 .1h.2M183.5 87.2l-.2 1.6-3-.2-.8 8.7-2-.1.8-8.8-3.1-.3.1-1.5 8.2.6M198.2 88.1l-.1 1.5-4.6-.2-.1 2.9 3.6.2-.1 1.4-3.6-.1-.2 2.9 4.6.2v1.6L191 98l.5-10.3 6.6.3M203 88.3h.2l.1.1.2.2 5.2 7a7 7 0 010-.9l.2-6.3 1.7.1-.3 10.4h-1l-.4-.2a.8.8 0 01-.3-.2l-5.2-7a10.6 10.6 0 010 .8l-.2 6.4h-1.7l.3-10.4h1.3M221.9 93.8c0-.6 0-1.1-.2-1.6l-.7-1.1c-.2-.3-.6-.6-1-.7-.4-.2-.9-.3-1.4-.3h-2v7.3h2c.5 0 1 0 1.4-.2.4-.2.7-.4 1-.8l.7-1.1.2-1.5zm2 0c0 .7-.2 1.4-.4 2a4.8 4.8 0 01-2.8 2.8c-.6.2-1.3.3-2.1.3h-4V88.5h4c.8 0 1.5.2 2.2.5.6.2 1.2.6 1.6 1 .5.5.9 1 1.1 1.7.2.6.4 1.3.4 2M239 88.2v1.6l-4.6.1.1 2.9 3.6-.1v1.5h-3.6l.1 3 4.6-.1v1.5l-6.5.2-.3-10.4 6.6-.2M243.8 88h.2l.1.2.2.1L250 95a8.3 8.3 0 01-.1-1l-.3-6.3h1.7l.5 10.3h-1.4a.8.8 0 01-.3-.2l-5.8-6.7a9 9 0 01.1 1l.4 6.3h-1.7l-.6-10.3h1.2M260.9 96a4.8 4.8 0 002-.7l-.2-1.9-1.3.1h-.3l-.1-.3v-1l3.4-.3.3 4.1a5.6 5.6 0 01-2.7 1.3l-1.2.2c-.7 0-1.4 0-2-.3a5 5 0 01-3-2.5 5.9 5.9 0 01-.3-4.3 4.8 4.8 0 012.5-3c.6-.3 1.3-.5 2.2-.5.8 0 1.6 0 2.2.2a5 5 0 011.6.8l-.5 1-.4.2h-.3a34.4 34.4 0 00-1-.5 4.3 4.3 0 00-3 .3 3 3 0 00-1 .8l-.5 1.2c-.1.5-.2 1-.1 1.5 0 .6.1 1.1.4 1.6l.7 1.1 1.2.7c.4.1.9.2 1.4.1M271 96.4l-2 .2-1-10.3 2-.2 1 10.3M275.5 85.5a.5.5 0 01.3.1l.1.2 6.3 6.2a7.5 7.5 0 01-.2-1l-.8-6.2 1.7-.2 1.3 10.3-1 .1h-.4a.9.9 0 01-.3-.2l-6.2-6.2a11.1 11.1 0 01.1.8l.8 6.4-1.7.2-1.2-10.3 1-.1h.2M293.4 83.1l.3 1.5-4.6.7.4 2.8 3.6-.5.2 1.5-3.6.5.5 3 4.5-.8.2 1.6-6.4 1L287 84l6.4-1M303.5 81.4l.2 1.5-4.5.8.5 2.8 3.6-.6.2 1.5-3.6.6.5 2.9 4.6-.8.2 1.5-6.4 1.1-1.8-10.2 6.5-1M310 85.2l1.1-.2 1-.4.5-.5.3-.6v-.7c-.1-.6-.4-1-.8-1.1-.4-.2-1-.3-1.6-.1l-1.2.2.7 3.4zm.2 1.4l.8 4-1.9.3-2-10.2 3-.6c.8-.1 1.4-.2 2-.1.4 0 .9.1 1.2.3l1 .8a3.2 3.2 0 01.2 3 3 3 0 01-.6.9l-.9.6c.3 0 .5.2.8.5l3.3 3.2-1.7.3h-.5a.9.9 0 01-.3-.2l-2.8-2.8a.8.8 0 00-.3-.2 1 1 0 00-.5 0l-.8.2"/>
  </g>
</svg>