<svg xmlns="http://www.w3.org/2000/svg" viewBox="0 0 441 99">
 <g fill="#E24721" fill-rule="nonzero">
    <path d="M9.8 55.6c-3 0-4.6-1.1-4.6-3.7s3-4.6 6.7-4.6c2.4 0 4.8.5 7.3 1.3-3.1 4.2-6.2 7-9.4 7zM54.7 6.8c1.1 0 2.5.5 2.5 2.2 0 5.8-8 14.4-17 19.5C46 17 50.8 6.8 54.7 6.8zm16 46.1C65 53 66 57.6 59 57.6c-9.1 0-19-6.2-29-10.9a138 138 0 006.5-11.2C51 30.5 63 17.5 63 7.7 63 3 60.6.6 57.1.6 45.7.6 36.9 17.4 28.8 32.5H27c-8 0-12.4-5-12.4-11.5 0-8 4-14.9 10-14.9a5 5 0 015.1 5c0 9-10.5 5.5-10.5 11.8 0 1.9 1.3 3.6 3.6 3.6 6 0 12.2-7 12.2-15 0-5.3-3.5-11-10.7-11C13.8.5 7 9.5 7 20.5 7 30.7 15 37.7 24.9 37.7H26c-1.2 2.1-2.3 4.2-3.5 6-3.5-1-7-1.8-10.5-1.8C5 41.8 0 46 0 51.6c0 6 6 9.7 11.6 9.7 5.5 0 10.4-3.9 15-9.6 9.4 4.7 19.6 11.4 30.1 11.4 6.8 0 16.5-1.7 16.5-7.6 0-1.4-.8-2.6-2.5-2.6"/>
    <path d="M139.5 37.1c2.7-9.3 12.1-14.2 12.1-8.8 0 4.3-6 8.4-12.1 8.8zm-58 10.6c-.6 0-1.2-.6-1.2-1.4 0-1.5 1.9-2.6 4.9-3.4-.4 2.7-1.4 4.8-3.6 4.8zM120 8c.5 0 1 .8 1 1.8 0 6-7.6 20.3-16.3 25.1C107.2 21 116.2 8 120 8zM68.2 28.3c0 4.3-6 8.4-12.1 8.8 2.7-9.3 12-14.2 12-8.8zm88.8-1.8c0-3.3-1.7-5.6-6-5.6-6.7 0-13 5.1-16.6 11l-1.5 2.8c-2.5 4.4-7.3 12.4-9.2 12.4-1 0-1.4-.5-1.4-1.5 0-2.3 8.5-14.9 9.4-17.7l.1-.3c0-2.8-2.3-4.7-4.2-4.7-1.5 0-4.4 4.2-7 9.3 0 0-7.4 13.5-13.6 13.5-1.8 0-3-1.8-3-3.8v-1.2c11.1-3.9 21.7-20.4 21.7-30.8 0-5-1.7-7.2-5.3-7.2-10.5 0-22 17.6-23.6 33.8l-4 .3c-.4-4.9-1.4-9.1-1.4-10 0-1.7 1.5-1.8 1.5-3.4 0-2.3-1.4-3.3-3.4-3.3h-.3-.2l-.2.1c-3.9 1-10 8.5-14.8 15-5.1 6.2-10.4 12-14.6 12-2.8 0-4-2-4-4.5 8.5-.6 18.2-6.7 18.2-16.2 0-3.3-1.7-5.6-6-5.6-10.7 0-20.1 13-20.1 21.4 0 7.6 5 10.1 11 10.1 7.6 0 15.8-9.6 21-16.6C81.6 33 83.3 31 84 31c.3 0 1 3.2 1.3 6.8-7.3 1.7-10 4.8-10 8.4 0 3.7 2 6.5 7.4 6.5 5.6 0 10.2-4.3 10.3-11l3.6-.2c.3 5.8 3 10.6 7.7 10.7 3.8 0 7.9-2.4 11.7-5.8 0 3.3 1.7 5.9 5.5 5.9 4 0 7.5-2.9 10.1-6 1.6 4.5 6 6 10.6 6 6 0 14.3-5.6 14.3-9.1 0-2.2-1.2-3.3-2.8-3.3-3.8 0-5.6 7.2-10.6 7.2-2.5 0-4.2-2-4.3-4.5C147.3 42 157 36 157 26.5M131.7 28"/>
    <path d="M132.2 23c4 0 5.8-3.2 5.8-5.3 0-2.1-1.2-4-3.2-4-3 0-5.3 3.2-5.5 5.9-.1 1.8 1.4 3.3 2.9 3.3"/>
  </g>
  <g fill="#E24721" fill-rule="nonzero">
    <path d="M189.3 11.9c3.1-3.6 7.3-6 12-6a4 4 0 014 4.1c0 7.5-12.3 15.7-23.4 18.4l.1-.7a37 37 0 017.3-15.8zm28.2 42.3c-2.3-1.6-6.4.5-8.7 1.3a50 50 0 01-12.8 2.2c-4 0-8.1-.4-11-3-2-1.6-3.3-4.1-4-6.7-1-4.5-.8-9.4-.2-14.2 14.8-3.2 29.8-13.6 29.8-25 0-4.3-3.6-8-8.3-8-16 0-26.5 12.3-30 28.2-3.2-.7-4.6-3-4.6-5.4 0-5.4 5.8-5 5.8-8.5 0-2.5-1.4-4.5-4-4.5-5.5 0-9.4 7.6-9.4 13 0 7 5 11 11.2 11.2-.2 2.2-.3 4.3-.3 6.5 0 10 6 18.5 15.5 21.4a62.8 62.8 0 0026.2-.5c1.9-.5 3.9-1.2 5.1-2.7 1.3-1.6 1.4-4.2-.3-5.3"/>
    <path d="M253.7 6.1c1.7 0 2.7 1.1 2.7 2.7 0 2.9-5.1 5.4-12.6 6.2 3.2-5.2 6.6-8.9 10-8.9zm-47.5 41c-1.8 0-3-1.5-3-4 0-7.2 6.8-16.9 12.1-16.9.8 0 1.4.3 1.8.8h-.8c-5 0-7 9.6-2.4 13.3-2.1 3.8-5 6.8-7.7 6.8zm74-5.8c-2.5 0-3.5 5.7-6.4 5.7-.7 0-1.1-.5-1.1-1.3 0-3.4 9.4-14.1 9.4-19.3 0-3.8-1.8-5.3-4-5.3-3.4 0-6.9 1.7-10.3 4.3 1-2.4 1.7-4 1.7-4.7 0-1.7-1.4-2.7-3.6-2.7-2 0-7.3 9.3-11.6 17.7-3 4.8-7.5 11.3-9.7 11.3-.6 0-1-.5-1-1.3 0-3.4 9.3-14.1 9.3-19.3 0-3.8-1.7-5.3-4-5.3-3.7 0-7.6 2.2-11.3 5.4l3.3-6.6c11.3-.6 20.9-3.4 20.9-11.6 0-5.2-2.5-8.3-8.8-8.3-5.5 0-11.5 6.7-17 15-3.2-.4-5.7-1.8-5.7-4.4 0-2 1-2.9 2.6-2.9 1 0 1.9.9 3.6.9 2 0 3.5-1.7 3.5-3.6 0-3-2.1-4.3-6.7-4.3-6.8 0-10.7 4.2-10.7 8.8 0 5.6 4 9.5 10.6 10.3-3 5-5.6 10.3-7.7 15-1.3.6-2.6 1.1-3.9 1.3 2.2-7.6.8-15-6.4-15a21 21 0 00-19.7 20.6c0 5.3 2.7 10.7 9.8 10.7 5.9 0 11-4.8 14-10.7 1.2 0 2.3-.2 3.4-.5-1.9 4.4-3 7.4-3 7.8 0 1.9 1.4 3.6 5 3.6 1.4 0 4-5.8 7.2-13.2 4.7-5.6 9.9-11.2 11.9-11.2.7 0 1 .2 1 1 0 2-9.5 13.6-9.5 17.6 0 3.8 2.6 5.5 5.9 5.5 2 0 4.5-1.2 7-2.8a3.7 3.7 0 002.8 2.9h.5c1.6 0 5.2-5.5 8.8-12 5-6 10.6-12.2 12.7-12.2.7 0 .9.2.9 1 0 2-9.4 13.6-9.4 17.6 0 3.8 2.6 5.5 5.8 5.5 5.6 0 12.8-3.6 12.8-7.2 0-2.6-1-3.8-3-3.8"/>
  </g>
  <g fill="#E24721" fill-rule="nonzero">
    <path d="M335.5 28c2.2 0 2.2 3.4 1.4 5.3a27 27 0 01-5.9 6.6c0-6.1 1.2-11.8 4.5-11.8zM393 5.2c7.4 0 11 3.3 11 6 0 1.6-2.2 2.9-3.8 2.9-3.3 0-3.6-1.7-6.6-1.7-5.5 0-6 8.8 2.1 8.8 8.6 0 13.4-5.3 13.4-10.5 0-6-7.2-10.5-15.9-10.5C354 .1 336.7 55 333.5 55c-.7 0-1.6-3.8-2.1-8.5 6.4-6 11.4-12.2 11.4-16.3 0-4.7-3.2-7.3-7.5-7.3-6.8 0-13.1 11.2-13.1 21.1v3a55 55 0 01-13.6 8.3c-1.5 0 18-25.4 18-36.9 0-6.9-5.5-12.3-12.8-12.3-16.4 0-28.3 10.5-28.3 26.5 0 5.3 4.2 10.2 8.9 10.2 9.4 0 15.3-9.6 15.3-12.4 0-2.8-1.7-4-3.6-4-3.7 0-5 3-5 5s-.3 3-.3 3c0 1-3.3 2.7-5.3 2.7-2.9 0-4-2.4-4-5.2 0-12.6 9.9-19.7 20.2-19.7 4.9 0 6 3.1 6 6.8 0 8.3-18.3 32.8-18.3 39.1 0 3.6 2 5.3 5.9 5.3 3.1 0 10.6-4.3 18-10 1.5 5.8 4.4 10 8.2 10 11.5 0 26.4-58.3 61.5-58.3"/>
    <path d="M427.3 52l-2.3-.1c3.8-3.8 6.4-6.9 8.3-6.9.8 0 1.7 0 1.7 1.5 0 2.3-3 5.5-7.7 5.5zm-50.5-23.7c0 4.3-6 8.4-12.1 8.8 2.7-9.3 12-14.2 12-8.8zm58.4 11.5c-6.2 0-10.8 5-16.3 10-.7-.8-1-1.9-1-3.1 0-4.5 8.9-15.4 8.9-20 0-3.4-1.7-5.5-3.9-5.5-3.5 0-7.2 2-10.6 4.7 1.2-2.6 1.9-4.6 1.9-5.2 0-1.7-1.4-2.7-3.6-2.7-2.8 0-12.4 17.6-16.7 26-2 1.7-4 3-5.1 3-5.4 0 7.2-16.3 7.2-19.4 0-2.8-2.3-4.7-4.2-4.7h-.4c-2 .6-5 6.3-8.1 12-4.8 6-10.7 12.3-15.3 12.3-2.8 0-4-2-4-4.5 8.5-.6 18.2-6.7 18.2-16.2 0-3.3-1.7-5.6-6-5.6-10.7 0-20.1 13-20.1 21.4 0 7.6 5 10.1 11 10.1 4 0 8.4-2.5 12.5-6l-.1.8a6 6 0 006.2 4.8c2.2 0 4.6-.7 6.8-1.6.8 1.1 2.1 2 3.3 2 1.5 0 4.8-4.8 8.2-10.7 5-6.4 11.2-13.7 13.5-13.7.7 0 .9.3.9 1 0 2.3-8.8 12.4-8.8 18.5 0 3 1.2 5.3 3.5 7-4 2.7-8.5 4.7-14.4 4.7-12.3 0-12.6-3.7-17.7-3.7-1 0-2.4.9-2.4 2.5 0 3.8 11 7 19.3 7a34 34 0 0021.6-8.1c1.7.3 3.6.4 5.7.4 7 0 15.4-2 15.4-12 0-3.6-2.3-5.5-5.4-5.5"/>
  </g>
  <g fill="#E24721" fill-rule="nonzero">
    <path d="M135 81.2L134.6 82.7L130.1 81.8L129.5 84.8L133.3 85.6L133.1 87.1L129.2 86.3L128.4 90.5L126.5 90.1L128.5 79.9L134.9 81.2H135ZM139.5 87L140.7 87.2H141.7L142.4 87L142.8 86.5C143 86.3 143 86 143.1 85.8C143.1 85.2 143.1 84.8 142.8 84.5C142.5 84.2 142 83.9 141.3 83.8L140.1 83.6L139.5 87ZM139.3 88.4L138.6 92.4L136.7 92L138.4 81.8L141.5 82.3C142.2 82.5 142.8 82.6 143.3 82.9C143.8 83.1 144.1 83.4 144.4 83.7C144.7 84 144.9 84.3 144.9 84.7V86C144.816 86.6358 144.536 87.2297 144.1 87.7C143.869 87.9433 143.598 88.1462 143.3 88.3L142.3 88.6L142.8 89.3L144.7 93.5L143 93.2C142.8 93.2 142.7 93.2 142.6 93C142.478 92.9253 142.375 92.8225 142.3 92.7L140.7 89.1C140.7 88.9 140.6 88.8 140.5 88.8L140.1 88.6L139.3 88.5V88.4ZM156.4 89.8V88.3L155.9 87L154.9 86.2C154.6 85.9 154.1 85.8 153.6 85.7H152.2C151.8 85.9 151.4 86.1 151.2 86.4C150.8 86.6 150.5 87 150.3 87.4C150.1 87.8 149.9 88.4 149.9 88.9C149.8 89.5 149.8 89.9 149.9 90.5C149.9 90.9 150.1 91.3 150.4 91.7C150.6 92 150.9 92.3 151.4 92.5C151.7 92.8 152.1 92.9 152.6 93L154 92.9C154.4 92.8 154.8 92.6 155.1 92.3C155.5 92.1 155.7 91.7 155.9 91.3L156.4 89.8ZM158.4 90.1L157.7 92.1C157.372 92.6882 156.928 93.2041 156.395 93.6165C155.862 94.0289 155.252 94.3294 154.6 94.5C153.9 94.7 153.2 94.7 152.4 94.6C151.6 94.5 150.9 94.3 150.4 93.9C149.808 93.5763 149.289 93.1339 148.876 92.6005C148.463 92.067 148.165 91.4541 148 90.8C147.8 90.1 147.8 89.4 148 88.6C148 87.9 148.2 87.2 148.6 86.6C148.917 86.0219 149.345 85.5122 149.86 85.1004C150.375 84.6885 150.966 84.3825 151.6 84.2C152.3 84 153.1 84 153.8 84.1C154.6 84.2 155.3 84.4 155.9 84.8C156.47 85.1385 156.966 85.5869 157.361 86.1191C157.756 86.6513 158.041 87.2566 158.2 87.9C158.4 88.6 158.4 89.3 158.3 90.1H158.4ZM163.7 85.5H163.8L163.9 85.6L164.1 85.8L168.7 93.3C168.677 92.967 168.677 92.6329 168.7 92.3L169.5 86.1L171.1 86.3L170.1 96.6L169.1 96.5L168.7 96.4L168.4 96.1L163.8 88.6C163.813 88.8998 163.813 89.2001 163.8 89.5L163 95.8L161.3 95.6L162.5 85.3L163.5 85.4H163.7V85.5ZM182.5 87.2L182.3 88.8L179.3 88.6L178.5 97.3L176.5 97.2L177.3 88.4L174.2 88.1L174.3 86.6L182.5 87.2ZM192.2 88.1L192.1 89.6L187.5 89.4L187.4 92.3L191 92.5L190.9 93.9L187.3 93.8L187.1 96.7L191.7 96.9V98.5L185 98L185.5 87.7L192.1 88L192.2 88.1ZM197 88.3H197.2L197.3 88.4L197.5 88.6L202.7 95.6C202.681 95.3003 202.681 94.9997 202.7 94.7L202.9 88.4L204.6 88.5L204.3 98.9H203.3L202.9 98.7C202.786 98.657 202.683 98.5886 202.6 98.5L197.4 91.5C197.41 91.7666 197.41 92.0334 197.4 92.3L197.2 98.7H195.5L195.8 88.3H197.1H197ZM215.9 93.8C215.9 93.2 215.9 92.7 215.7 92.2L215 91.1C214.8 90.8 214.4 90.5 214 90.4C213.6 90.2 213.1 90.1 212.6 90.1H210.6V97.4H212.6C213.1 97.4 213.6 97.4 214 97.2C214.4 97 214.7 96.8 215 96.4L215.7 95.3L215.9 93.8ZM217.9 93.8C217.9 94.5 217.7 95.2 217.5 95.8C217.259 96.439 216.885 97.0193 216.402 97.5022C215.919 97.985 215.339 98.3593 214.7 98.6C214.1 98.8 213.4 98.9 212.6 98.9H208.6V88.5H212.6C213.4 88.5 214.1 88.7 214.8 89C215.4 89.2 216 89.6 216.4 90C216.9 90.5 217.3 91 217.5 91.7C217.7 92.3 217.9 93 217.9 93.7V93.8ZM235 88.2V89.8L230.4 89.9L230.5 92.8L234.1 92.7V94.2H230.5L230.6 97.2L235.2 97.1V98.6L228.7 98.8L228.4 88.4L235 88.2ZM239.8 88H240L240.1 88.2L240.3 88.3L246 95C245.946 94.669 245.913 94.335 245.9 94L245.6 87.7H247.3L247.8 98H246.4C246.286 97.957 246.183 97.8886 246.1 97.8L240.3 91.1C240.352 91.4312 240.385 91.7651 240.4 92.1L240.8 98.4H239.1L238.5 88.1H239.7L239.8 88ZM256.9 96C257.61 95.9186 258.294 95.6794 258.9 95.3L258.7 93.4L257.4 93.5H257.1L257 93.2V92.2L260.4 91.9L260.7 96C259.935 96.6706 259.001 97.12 258 97.3L256.8 97.5C256.1 97.5 255.4 97.5 254.8 97.2C254.158 97.0059 253.561 96.6845 253.046 96.255C252.53 95.8255 252.107 95.2967 251.8 94.7C251.161 93.3558 251.054 91.8199 251.5 90.4C251.683 89.7527 252 89.1511 252.431 88.6343C252.862 88.1174 253.396 87.6969 254 87.4C254.6 87.1 255.3 86.9 256.2 86.9C257 86.9 257.8 86.9 258.4 87.1C258.977 87.2683 259.519 87.5393 260 87.9L259.5 88.9L259.1 89.1H258.8C258.469 88.9279 258.136 88.7612 257.8 88.6C256.797 88.3346 255.731 88.4412 254.8 88.9C254.413 89.0916 254.072 89.3645 253.8 89.7L253.3 90.9C253.2 91.4 253.1 91.9 253.2 92.4C253.2 93 253.3 93.5 253.6 94L254.3 95.1L255.5 95.8C255.9 95.9 256.4 96 256.9 95.9V96ZM267 96.4L265 96.6L264 86.3L266 86.1L267 96.4ZM271.5 85.5C271.608 85.5 271.713 85.5351 271.8 85.6L271.9 85.8L278.2 92C278.111 91.6716 278.044 91.3375 278 91L277.2 84.8L278.9 84.6L280.2 94.9L279.2 95H278.8C278.688 94.9542 278.585 94.8862 278.5 94.8L272.3 88.6C272.343 88.8654 272.376 89.1322 272.4 89.4L273.2 95.8L271.5 96L270.3 85.7L271.3 85.6H271.5V85.5ZM289.4 83.1L289.7 84.6L285.1 85.3L285.5 88.1L289.1 87.6L289.3 89.1L285.7 89.6L286.2 92.6L290.7 91.8L290.9 93.4L284.5 94.4L283 84L289.4 83V83.1ZM299.5 81.4L299.7 82.9L295.2 83.7L295.7 86.5L299.3 85.9L299.5 87.4L295.9 88L296.4 90.9L301 90.1L301.2 91.6L294.8 92.7L293 82.5L299.5 81.5V81.4ZM306 85.2L307.1 85L308.1 84.6L308.6 84.1L308.9 83.5V82.8C308.8 82.2 308.5 81.8 308.1 81.7C307.7 81.5 307.1 81.4 306.5 81.6L305.3 81.8L306 85.2ZM306.2 86.6L307 90.6L305.1 90.9L303.1 80.7L306.1 80.1C306.9 80 307.5 79.9 308.1 80C308.5 80 309 80.1 309.3 80.3L310.3 81.1C310.577 81.5454 310.739 82.0519 310.774 82.575C310.809 83.0982 310.715 83.6218 310.5 84.1C310.356 84.4339 310.153 84.7388 309.9 85L309 85.6C309.3 85.6 309.5 85.8 309.8 86.1L313.1 89.3L311.4 89.6H310.9C310.788 89.5542 310.685 89.4862 310.6 89.4L307.8 86.6C307.717 86.5114 307.614 86.443 307.5 86.4C307.336 86.3577 307.164 86.3577 307 86.4L306.2 86.6Z" />
    <!-- <path d="M136 81.2l-.4 1.5-4.5-.9-.6 3 3.8.8-.2 1.5-3.9-.8-.8 4.2-1.9-.4 2-10.2 6.4 1.3M140.5 87l1.2.2h1l.7-.2.4-.5c.2-.2.2-.5.3-.7 0-.6 0-1-.3-1.3-.3-.3-.8-.6-1.5-.7l-1.2-.2-.6 3.4zm-.2 1.4l-.7 4-1.9-.4 1.7-10.2 3.1.5c.7.2 1.3.3 1.8.6.5.2.8.5 1.1.8.3.3.5.6.5 1V86a3.1 3.1 0 01-.8 1.7 3 3 0 01-.8.6l-1 .3.5.7 1.9 4.2-1.7-.3c-.2 0-.3 0-.4-.2a.9.9 0 01-.3-.3l-1.6-3.6c0-.2-.1-.3-.2-.3l-.4-.2-.8-.1M157.4 89.8v-1.5l-.5-1.3-1-.8c-.3-.3-.8-.4-1.3-.5h-1.4c-.4.2-.8.4-1 .7-.4.2-.7.6-.9 1-.2.4-.4 1-.4 1.5-.1.6-.1 1 0 1.6 0 .4.2.8.5 1.2.2.3.5.6 1 .8.3.3.7.4 1.2.5l1.4-.1c.4-.1.8-.3 1.1-.6.4-.2.6-.6.8-1l.5-1.5zm2 .3l-.7 2a5 5 0 01-3.1 2.4c-.7.2-1.4.2-2.2.1-.8-.1-1.5-.3-2-.7a4.9 4.9 0 01-2.4-3.1c-.2-.7-.2-1.4 0-2.2 0-.7.2-1.4.6-2a5 5 0 013-2.4c.7-.2 1.5-.2 2.2-.1.8.1 1.5.3 2.1.7a5 5 0 012.3 3.1c.2.7.2 1.4.1 2.2M164.7 85.5h.1l.1.1.2.2 4.6 7.5a7.4 7.4 0 010-1l.8-6.2 1.6.2-1 10.3-1-.1-.4-.1-.3-.3-4.6-7.5a10.2 10.2 0 010 .9l-.8 6.3-1.7-.2 1.2-10.3 1 .1h.2M183.5 87.2l-.2 1.6-3-.2-.8 8.7-2-.1.8-8.8-3.1-.3.1-1.5 8.2.6M198.2 88.1l-.1 1.5-4.6-.2-.1 2.9 3.6.2-.1 1.4-3.6-.1-.2 2.9 4.6.2v1.6L191 98l.5-10.3 6.6.3M203 88.3h.2l.1.1.2.2 5.2 7a7 7 0 010-.9l.2-6.3 1.7.1-.3 10.4h-1l-.4-.2a.8.8 0 01-.3-.2l-5.2-7a10.6 10.6 0 010 .8l-.2 6.4h-1.7l.3-10.4h1.3M221.9 93.8c0-.6 0-1.1-.2-1.6l-.7-1.1c-.2-.3-.6-.6-1-.7-.4-.2-.9-.3-1.4-.3h-2v7.3h2c.5 0 1 0 1.4-.2.4-.2.7-.4 1-.8l.7-1.1.2-1.5zm2 0c0 .7-.2 1.4-.4 2a4.8 4.8 0 01-2.8 2.8c-.6.2-1.3.3-2.1.3h-4V88.5h4c.8 0 1.5.2 2.2.5.6.2 1.2.6 1.6 1 .5.5.9 1 1.1 1.7.2.6.4 1.3.4 2M239 88.2v1.6l-4.6.1.1 2.9 3.6-.1v1.5h-3.6l.1 3 4.6-.1v1.5l-6.5.2-.3-10.4 6.6-.2M243.8 88h.2l.1.2.2.1L250 95a8.3 8.3 0 01-.1-1l-.3-6.3h1.7l.5 10.3h-1.4a.8.8 0 01-.3-.2l-5.8-6.7a9 9 0 01.1 1l.4 6.3h-1.7l-.6-10.3h1.2M260.9 96a4.8 4.8 0 002-.7l-.2-1.9-1.3.1h-.3l-.1-.3v-1l3.4-.3.3 4.1a5.6 5.6 0 01-2.7 1.3l-1.2.2c-.7 0-1.4 0-2-.3a5 5 0 01-3-2.5 5.9 5.9 0 01-.3-4.3 4.8 4.8 0 012.5-3c.6-.3 1.3-.5 2.2-.5.8 0 1.6 0 2.2.2a5 5 0 011.6.8l-.5 1-.4.2h-.3a34.4 34.4 0 00-1-.5 4.3 4.3 0 00-3 .3 3 3 0 00-1 .8l-.5 1.2c-.1.5-.2 1-.1 1.5 0 .6.1 1.1.4 1.6l.7 1.1 1.2.7c.4.1.9.2 1.4.1M271 96.4l-2 .2-1-10.3 2-.2 1 10.3M275.5 85.5a.5.5 0 01.3.1l.1.2 6.3 6.2a7.5 7.5 0 01-.2-1l-.8-6.2 1.7-.2 1.3 10.3-1 .1h-.4a.9.9 0 01-.3-.2l-6.2-6.2a11.1 11.1 0 01.1.8l.8 6.4-1.7.2-1.2-10.3 1-.1h.2M293.4 83.1l.3 1.5-4.6.7.4 2.8 3.6-.5.2 1.5-3.6.5.5 3 4.5-.8.2 1.6-6.4 1L287 84l6.4-1M303.5 81.4l.2 1.5-4.5.8.5 2.8 3.6-.6.2 1.5-3.6.6.5 2.9 4.6-.8.2 1.5-6.4 1.1-1.8-10.2 6.5-1M310 85.2l1.1-.2 1-.4.5-.5.3-.6v-.7c-.1-.6-.4-1-.8-1.1-.4-.2-1-.3-1.6-.1l-1.2.2.7 3.4zm.2 1.4l.8 4-1.9.3-2-10.2 3-.6c.8-.1 1.4-.2 2-.1.4 0 .9.1 1.2.3l1 .8a3.2 3.2 0 01.2 3 3 3 0 01-.6.9l-.9.6c.3 0 .5.2.8.5l3.3 3.2-1.7.3h-.5a.9.9 0 01-.3-.2l-2.8-2.8a.8.8 0 00-.3-.2 1 1 0 00-.5 0l-.8.2"/> -->
  </g>
</svg>